<?xml version="1.0" encoding="UTF-8" standalone="no"?>
<!DOCTYPE svg PUBLIC "-//W3C//DTD SVG 1.1//EN"
 "http://www.w3.org/Graphics/SVG/1.1/DTD/svg11.dtd">
<!-- Generated by graphviz version 14.1.3 (20260303.0454)
 -->
<!-- Title: HealthCoach Pages: 1 -->
<svg width="790pt" height="997pt"
 viewBox="0.00 0.00 790.00 997.00" xmlns="http://www.w3.org/2000/svg" xmlns:xlink="http://www.w3.org/1999/xlink">
<g id="graph0" class="graph" transform="scale(1 1) rotate(0) translate(36 961.22)">
<title>HealthCoach</title>
<polygon fill="#fafbfc" stroke="none" points="-36,36 -36,-961.22 753.56,-961.22 753.56,36 -36,36"/>
<g id="clust1" class="cluster">
<title>cluster_ingestion</title>
<path fill="#eff6ff" stroke="#93c5fd" stroke-width="1.5" stroke-dasharray="5,2" d="M204,-490.62C204,-490.62 328,-490.62 328,-490.62 334,-490.62 340,-496.62 340,-502.62 340,-502.62 340,-840.62 340,-840.62 340,-846.62 334,-852.62 328,-852.62 328,-852.62 204,-852.62 204,-852.62 198,-852.62 192,-846.62 192,-840.62 192,-840.62 192,-502.62 192,-502.62 192,-496.62 198,-490.62 204,-490.62"/>
<text xml:space="preserve" text-anchor="start" x="200" y="-840.12" font-family="Helvetica Neue" font-weight="bold" font-size="10.00" fill="#1e40af">Ingestion Pipeline</text>
</g>
<g id="clust2" class="cluster">
<title>cluster_phases</title>
<path fill="#f5f3ff" stroke="#a78bfa" stroke-width="1.5" stroke-dasharray="5,2" d="M20,-376.12C20,-376.12 537,-376.12 537,-376.12 543,-376.12 549,-382.12 549,-388.12 549,-388.12 549,-452.12 549,-452.12 549,-458.12 543,-464.12 537,-464.12 537,-464.12 20,-464.12 20,-464.12 14,-464.12 8,-458.12 8,-452.12 8,-452.12 8,-388.12 8,-388.12 8,-382.12 14,-376.12 20,-376.12"/>
<text xml:space="preserve" text-anchor="start" x="16" y="-451.62" font-family="Helvetica Neue" font-weight="bold" font-size="10.00" fill="#5b21b6">Phase Agents</text>
</g>
<g id="clust4" class="cluster">
<title>cluster_tools</title>
<path fill="#fffbeb" stroke="#fbbf24" stroke-width="1.5" stroke-dasharray="5,2" d="M358,-260.1C358,-260.1 536,-260.1 536,-260.1 542,-260.1 548,-266.1 548,-272.1 548,-272.1 548,-337.62 548,-337.62 548,-343.62 542,-349.62 536,-349.62 536,-349.62 358,-349.62 358,-349.62 352,-349.62 346,-343.62 346,-337.62 346,-337.62 346,-272.1 346,-272.1 346,-266.1 352,-260.1 358,-260.1"/>
<text xml:space="preserve" text-anchor="start" x="354" y="-337.12" font-family="Helvetica Neue" font-weight="bold" font-size="10.00" fill="#92400e">Tool Execution</text>
</g>
<g id="clust5" class="cluster">
<title>cluster_safety</title>
<path fill="#fef2f2" stroke="#f87171" stroke-width="1.5" stroke-dasharray="5,2" d="M142,-165.6C142,-165.6 326,-165.6 326,-165.6 332,-165.6 338,-171.6 338,-177.6 338,-177.6 338,-336.86 338,-336.86 338,-342.86 332,-348.86 326,-348.86 326,-348.86 142,-348.86 142,-348.86 136,-348.86 130,-342.86 130,-336.86 130,-336.86 130,-177.6 130,-177.6 130,-171.6 136,-165.6 142,-165.6"/>
<text xml:space="preserve" text-anchor="start" x="138" y="-336.36" font-family="Helvetica Neue" font-weight="bold" font-size="10.00" fill="#991b1b">Safety Pipeline</text>
</g>
<!-- START -->
<g id="node1" class="node">
<title>START</title>
<ellipse fill="#10b981" stroke="#059669" stroke-width="2" cx="266" cy="-905.42" rx="19.8" ry="19.8"/>
<text xml:space="preserve" text-anchor="middle" x="266" y="-902.5" font-family="Helvetica Neue" font-size="9.00" fill="white">START</text>
</g>
<!-- consent_gate -->
<g id="node3" class="node">
<title>consent_gate</title>
<path fill="#dbeafe" stroke="#3b82f6" stroke-width="1.2" d="M295.55,-816.62C295.55,-816.62 236.45,-816.62 236.45,-816.62 230.45,-816.62 224.45,-810.62 224.45,-804.62 224.45,-804.62 224.45,-792.62 224.45,-792.62 224.45,-786.62 230.45,-780.62 236.45,-780.62 236.45,-780.62 295.55,-780.62 295.55,-780.62 301.55,-780.62 307.55,-786.62 307.55,-792.62 307.55,-792.62 307.55,-804.62 307.55,-804.62 307.55,-810.62 301.55,-816.62 295.55,-816.62"/>
<text xml:space="preserve" text-anchor="middle" x="266" y="-795.12" font-family="Helvetica Neue" font-size="10.00">Consent Gate</text>
</g>
<!-- START&#45;&gt;consent_gate -->
<g id="edge4" class="edge">
<title>START&#45;&gt;consent_gate</title>
<path fill="none" stroke="#9ca3af" d="M266,-884.71C266,-867.84 266,-843.46 266,-825.11"/>
<polygon fill="#9ca3af" stroke="#9ca3af" points="268.28,-825.17 266,-818.67 263.73,-825.17 268.28,-825.17"/>
</g>
<!-- END -->
<g id="node2" class="node">
<title>END</title>
<ellipse fill="#6b7280" stroke="#4b5563" stroke-width="2" cx="137" cy="-23.8" rx="19.8" ry="19.8"/>
<ellipse fill="none" stroke="#4b5563" stroke-width="2" cx="137" cy="-23.8" rx="23.8" ry="23.8"/>
<text xml:space="preserve" text-anchor="middle" x="137" y="-20.88" font-family="Helvetica Neue" font-size="9.00" fill="white">END</text>
</g>
<!-- consent_gate&#45;&gt;END -->
<g id="edge5" class="edge">
<title>consent_gate&#45;&gt;END</title>
<path fill="none" stroke="#ef4444" stroke-dasharray="5,2" d="M307.12,-780.17C396.03,-739.86 604.65,-630.78 685,-464.12 701.99,-428.89 689.16,-415.01 685,-376.12 658.91,-131.95 282.32,-49.17 169.02,-29.72"/>
<polygon fill="#ef4444" stroke="#ef4444" points="169.6,-27.51 162.82,-28.68 168.85,-32 169.6,-27.51"/>
<text xml:space="preserve" text-anchor="middle" x="705.56" y="-407.77" font-family="Helvetica Neue" font-size="8.00" fill="#ef4444">denied</text>
</g>
<!-- load_patient_context -->
<g id="node4" class="node">
<title>load_patient_context</title>
<path fill="#dbeafe" stroke="#3b82f6" stroke-width="1.2" d="M312.05,-722.12C312.05,-722.12 219.95,-722.12 219.95,-722.12 213.95,-722.12 207.95,-716.12 207.95,-710.12 207.95,-710.12 207.95,-698.12 207.95,-698.12 207.95,-692.12 213.95,-686.12 219.95,-686.12 219.95,-686.12 312.05,-686.12 312.05,-686.12 318.05,-686.12 324.05,-692.12 324.05,-698.12 324.05,-698.12 324.05,-710.12 324.05,-710.12 324.05,-716.12 318.05,-722.12 312.05,-722.12"/>
<text xml:space="preserve" text-anchor="middle" x="266" y="-700.62" font-family="Helvetica Neue" font-size="10.00">Load Patient Context</text>
</g>
<!-- consent_gate&#45;&gt;load_patient_context -->
<g id="edge1" class="edge">
<title>consent_gate&#45;&gt;load_patient_context</title>
<path fill="none" stroke="#9ca3af" d="M266,-780.22C266,-766.14 266,-746.11 266,-730.28"/>
<polygon fill="#9ca3af" stroke="#9ca3af" points="268.28,-730.45 266,-723.95 263.73,-730.45 268.28,-730.45"/>
<text xml:space="preserve" text-anchor="middle" x="279.5" y="-749.02" font-family="Helvetica Neue" font-size="8.00">allowed</text>
</g>
<!-- crisis_check -->
<g id="node5" class="node">
<title>crisis_check</title>
<path fill="#fee2e2" stroke="#ef4444" stroke-width="1.2" d="M293.3,-637.12C293.3,-637.12 238.7,-637.12 238.7,-637.12 232.7,-637.12 226.7,-631.12 226.7,-625.12 226.7,-625.12 226.7,-613.12 226.7,-613.12 226.7,-607.12 232.7,-601.12 238.7,-601.12 238.7,-601.12 293.3,-601.12 293.3,-601.12 299.3,-601.12 305.3,-607.12 305.3,-613.12 305.3,-613.12 305.3,-625.12 305.3,-625.12 305.3,-631.12 299.3,-637.12 293.3,-637.12"/>
<text xml:space="preserve" text-anchor="middle" x="266" y="-615.62" font-family="Helvetica Neue" font-size="10.00">Crisis Check</text>
</g>
<!-- load_patient_context&#45;&gt;crisis_check -->
<g id="edge2" class="edge">
<title>load_patient_context&#45;&gt;crisis_check</title>
<path fill="none" stroke="#9ca3af" d="M266,-685.92C266,-674.2 266,-658.5 266,-645.36"/>
<polygon fill="#9ca3af" stroke="#9ca3af" points="268.28,-645.59 266,-639.09 263.73,-645.59 268.28,-645.59"/>
</g>
<!-- manage_history -->
<g id="node6" class="node">
<title>manage_history</title>
<path fill="#dbeafe" stroke="#3b82f6" stroke-width="1.2" d="M300.43,-542.62C300.43,-542.62 231.57,-542.62 231.57,-542.62 225.57,-542.62 219.57,-536.62 219.57,-530.62 219.57,-530.62 219.57,-518.62 219.57,-518.62 219.57,-512.62 225.57,-506.62 231.57,-506.62 231.57,-506.62 300.43,-506.62 300.43,-506.62 306.43,-506.62 312.43,-512.62 312.43,-518.62 312.43,-518.62 312.43,-530.62 312.43,-530.62 312.43,-536.62 306.43,-542.62 300.43,-542.62"/>
<text xml:space="preserve" text-anchor="middle" x="266" y="-527.12" font-family="Helvetica Neue" font-size="10.00">Manage History</text>
<text xml:space="preserve" text-anchor="middle" x="266" y="-515.12" font-family="Helvetica Neue" font-size="10.00">+ Phase Router</text>
</g>
<!-- crisis_check&#45;&gt;manage_history -->
<g id="edge3" class="edge">
<title>crisis_check&#45;&gt;manage_history</title>
<path fill="none" stroke="#9ca3af" d="M266,-600.72C266,-586.64 266,-566.61 266,-550.78"/>
<polygon fill="#9ca3af" stroke="#9ca3af" points="268.28,-550.95 266,-544.45 263.73,-550.95 268.28,-550.95"/>
<text xml:space="preserve" text-anchor="middle" x="273.5" y="-569.52" font-family="Helvetica Neue" font-size="8.00">safe</text>
</g>
<!-- fallback_response -->
<g id="node15" class="node">
<title>fallback_response</title>
<path fill="#fee2e2" stroke="#ef4444" stroke-width="1.2" d="M202.3,-217.6C202.3,-217.6 159.7,-217.6 159.7,-217.6 153.7,-217.6 147.7,-211.6 147.7,-205.6 147.7,-205.6 147.7,-193.6 147.7,-193.6 147.7,-187.6 153.7,-181.6 159.7,-181.6 159.7,-181.6 202.3,-181.6 202.3,-181.6 208.3,-181.6 214.3,-187.6 214.3,-193.6 214.3,-193.6 214.3,-205.6 214.3,-205.6 214.3,-211.6 208.3,-217.6 202.3,-217.6"/>
<text xml:space="preserve" text-anchor="middle" x="181" y="-202.1" font-family="Helvetica Neue" font-size="10.00">Fallback</text>
<text xml:space="preserve" text-anchor="middle" x="181" y="-190.1" font-family="Helvetica Neue" font-size="10.00">Response</text>
</g>
<!-- crisis_check&#45;&gt;fallback_response -->
<g id="edge6" class="edge">
<title>crisis_check&#45;&gt;fallback_response</title>
<path fill="none" stroke="#ef4444" stroke-dasharray="5,2" d="M286.61,-600.66C299.69,-590.07 317.24,-576.69 334,-566.62 402.86,-525.24 424.81,-523.74 498,-490.62 524.56,-478.6 534.08,-480.79 558,-464.12 609.56,-428.19 674.51,-415.9 651,-357.62 628.47,-301.79 610.76,-287.2 557,-260.1 426.92,-194.53 373.97,-250.23 232,-217.6 228.83,-216.87 225.57,-216.03 222.32,-215.11"/>
<polygon fill="#ef4444" stroke="#ef4444" points="223.09,-212.96 216.21,-213.29 221.79,-217.32 223.09,-212.96"/>
<text xml:space="preserve" text-anchor="middle" x="666.08" y="-407.77" font-family="Helvetica Neue" font-size="8.00" fill="#ef4444">crisis!</text>
</g>
<!-- pending_node -->
<g id="node7" class="node">
<title>pending_node</title>
<path fill="#ede9fe" stroke="#8b5cf6" stroke-width="1.2" stroke-dasharray="5,2" d="M76.17,-428.12C76.17,-428.12 35.83,-428.12 35.83,-428.12 29.82,-428.12 23.83,-422.12 23.83,-416.12 23.83,-416.12 23.83,-404.12 23.83,-404.12 23.83,-398.12 29.83,-392.12 35.83,-392.12 35.83,-392.12 76.17,-392.12 76.17,-392.12 82.17,-392.12 88.17,-398.12 88.17,-404.12 88.17,-404.12 88.17,-416.12 88.17,-416.12 88.17,-422.12 82.17,-428.12 76.17,-428.12"/>
<text xml:space="preserve" text-anchor="middle" x="56" y="-412.62" font-family="Helvetica Neue" font-size="10.00">Pending</text>
<text xml:space="preserve" text-anchor="middle" x="56" y="-400.62" font-family="Helvetica Neue" font-size="10.00">(template)</text>
</g>
<!-- manage_history&#45;&gt;pending_node -->
<g id="edge7" class="edge">
<title>manage_history&#45;&gt;pending_node</title>
<path fill="none" stroke="#9ca3af" d="M219.23,-512.36C185.83,-502.91 140.83,-487.2 106,-464.12 93.95,-456.13 82.69,-444.72 73.92,-434.52"/>
<polygon fill="#9ca3af" stroke="#9ca3af" points="75.68,-433.07 69.77,-429.54 72.18,-435.99 75.68,-433.07"/>
<text xml:space="preserve" text-anchor="middle" x="156.77" y="-475.02" font-family="Helvetica Neue" font-size="8.00" fill="#7c3aed">PENDING</text>
</g>
<!-- dormant_node -->
<g id="node8" class="node">
<title>dormant_node</title>
<path fill="#ede9fe" stroke="#8b5cf6" stroke-width="1.2" stroke-dasharray="5,2" d="M171.55,-428.12C171.55,-428.12 136.45,-428.12 136.45,-428.12 130.45,-428.12 124.45,-422.12 124.45,-416.12 124.45,-416.12 124.45,-404.12 124.45,-404.12 124.45,-398.12 130.45,-392.12 136.45,-392.12 136.45,-392.12 171.55,-392.12 171.55,-392.12 177.55,-392.12 183.55,-398.12 183.55,-404.12 183.55,-404.12 183.55,-416.12 183.55,-416.12 183.55,-422.12 177.55,-428.12 171.55,-428.12"/>
<text xml:space="preserve" text-anchor="middle" x="154" y="-406.62" font-family="Helvetica Neue" font-size="10.00">Dormant</text>
</g>
<!-- manage_history&#45;&gt;dormant_node -->
<g id="edge8" class="edge">
<title>manage_history&#45;&gt;dormant_node</title>
<path fill="none" stroke="#9ca3af" d="M244.05,-506.32C235.44,-499.24 225.64,-490.8 217.25,-482.62 201.57,-467.33 185.23,-448.78 173.09,-434.4"/>
<polygon fill="#9ca3af" stroke="#9ca3af" points="175.04,-433.2 169.12,-429.68 171.56,-436.12 175.04,-433.2"/>
<text xml:space="preserve" text-anchor="middle" x="237.12" y="-475.02" font-family="Helvetica Neue" font-size="8.00" fill="#7c3aed">DORMANT</text>
</g>
<!-- onboarding_agent -->
<g id="node9" class="node">
<title>onboarding_agent</title>
<path fill="#ede9fe" stroke="#8b5cf6" stroke-width="1.2" d="M410.43,-428.12C410.43,-428.12 359.57,-428.12 359.57,-428.12 353.57,-428.12 347.57,-422.12 347.57,-416.12 347.57,-416.12 347.57,-404.12 347.57,-404.12 347.57,-398.12 353.57,-392.12 359.57,-392.12 359.57,-392.12 410.43,-392.12 410.43,-392.12 416.43,-392.12 422.43,-398.12 422.43,-404.12 422.43,-404.12 422.43,-416.12 422.43,-416.12 422.43,-422.12 416.43,-428.12 410.43,-428.12"/>
<text xml:space="preserve" text-anchor="middle" x="385" y="-412.62" font-family="Helvetica Neue" font-size="10.00">Onboarding</text>
<text xml:space="preserve" text-anchor="middle" x="385" y="-400.62" font-family="Helvetica Neue" font-size="10.00">Agent (LLM)</text>
</g>
<!-- manage_history&#45;&gt;onboarding_agent -->
<g id="edge9" class="edge">
<title>manage_history&#45;&gt;onboarding_agent</title>
<path fill="none" stroke="#9ca3af" d="M299.62,-506.08C310.57,-499.52 322.38,-491.49 332,-482.62 347.18,-468.64 360.94,-449.79 370.64,-434.95"/>
<polygon fill="#9ca3af" stroke="#9ca3af" points="372.4,-436.43 373.98,-429.72 368.56,-433.97 372.4,-436.43"/>
<text xml:space="preserve" text-anchor="middle" x="369.22" y="-475.02" font-family="Helvetica Neue" font-size="8.00" fill="#7c3aed">ONBOARDING</text>
</g>
<!-- active_agent -->
<g id="node10" class="node">
<title>active_agent</title>
<path fill="#ede9fe" stroke="#8b5cf6" stroke-width="1.2" d="M521.42,-428.12C521.42,-428.12 470.57,-428.12 470.57,-428.12 464.57,-428.12 458.57,-422.12 458.57,-416.12 458.57,-416.12 458.57,-404.12 458.57,-404.12 458.57,-398.12 464.57,-392.12 470.57,-392.12 470.57,-392.12 521.42,-392.12 521.42,-392.12 527.42,-392.12 533.42,-398.12 533.42,-404.12 533.42,-404.12 533.42,-416.12 533.42,-416.12 533.42,-422.12 527.42,-428.12 521.42,-428.12"/>
<text xml:space="preserve" text-anchor="middle" x="496" y="-412.62" font-family="Helvetica Neue" font-size="10.00">Active</text>
<text xml:space="preserve" text-anchor="middle" x="496" y="-400.62" font-family="Helvetica Neue" font-size="10.00">Agent (LLM)</text>
</g>
<!-- manage_history&#45;&gt;active_agent -->
<g id="edge10" class="edge">
<title>manage_history&#45;&gt;active_agent</title>
<path fill="none" stroke="#9ca3af" d="M312.65,-515.4C349.8,-507.13 401.73,-491.56 440,-464.12 452.19,-455.38 464.43,-444.14 474.35,-434.27"/>
<polygon fill="#9ca3af" stroke="#9ca3af" points="475.89,-435.94 478.84,-429.71 472.65,-432.74 475.89,-435.94"/>
<text xml:space="preserve" text-anchor="middle" x="441.88" y="-475.02" font-family="Helvetica Neue" font-size="8.00" fill="#7c3aed">ACTIVE</text>
</g>
<!-- reengagement_agent -->
<g id="node11" class="node">
<title>reengagement_agent</title>
<path fill="#ede9fe" stroke="#8b5cf6" stroke-width="1.2" d="M300.05,-428.12C300.05,-428.12 231.95,-428.12 231.95,-428.12 225.95,-428.12 219.95,-422.12 219.95,-416.12 219.95,-416.12 219.95,-404.12 219.95,-404.12 219.95,-398.12 225.95,-392.12 231.95,-392.12 231.95,-392.12 300.05,-392.12 300.05,-392.12 306.05,-392.12 312.05,-398.12 312.05,-404.12 312.05,-404.12 312.05,-416.12 312.05,-416.12 312.05,-422.12 306.05,-428.12 300.05,-428.12"/>
<text xml:space="preserve" text-anchor="middle" x="266" y="-412.62" font-family="Helvetica Neue" font-size="10.00">Re&#45;engagement</text>
<text xml:space="preserve" text-anchor="middle" x="266" y="-400.62" font-family="Helvetica Neue" font-size="10.00">Agent (LLM)</text>
</g>
<!-- manage_history&#45;&gt;reengagement_agent -->
<g id="edge11" class="edge">
<title>manage_history&#45;&gt;reengagement_agent</title>
<path fill="none" stroke="#9ca3af" d="M266,-506.04C266,-487.38 266,-457.72 266,-436.52"/>
<polygon fill="#9ca3af" stroke="#9ca3af" points="268.28,-436.59 266,-430.09 263.73,-436.59 268.28,-436.59"/>
<text xml:space="preserve" text-anchor="middle" x="294.5" y="-475.02" font-family="Helvetica Neue" font-size="8.00" fill="#7c3aed">RE_ENGAGING</text>
</g>
<!-- save_patient_context -->
<g id="node16" class="node">
<title>save_patient_context</title>
<path fill="#d1fae5" stroke="#10b981" stroke-width="1.5" d="M183.05,-132.6C183.05,-132.6 90.95,-132.6 90.95,-132.6 84.95,-132.6 78.95,-126.6 78.95,-120.6 78.95,-120.6 78.95,-108.6 78.95,-108.6 78.95,-102.6 84.95,-96.6 90.95,-96.6 90.95,-96.6 183.05,-96.6 183.05,-96.6 189.05,-96.6 195.05,-102.6 195.05,-108.6 195.05,-108.6 195.05,-120.6 195.05,-120.6 195.05,-126.6 189.05,-132.6 183.05,-132.6"/>
<text xml:space="preserve" text-anchor="middle" x="137" y="-111.1" font-family="Helvetica Neue" font-size="10.00">Save Patient Context</text>
</g>
<!-- pending_node&#45;&gt;save_patient_context -->
<g id="edge12" class="edge">
<title>pending_node&#45;&gt;save_patient_context</title>
<path fill="none" stroke="#9ca3af" d="M53.98,-391.7C50.93,-360.93 46.74,-295.14 59.25,-241.6 67.74,-205.25 74.88,-197.04 95,-165.6 100.84,-156.47 108.18,-147.18 115.08,-139.13"/>
<polygon fill="#9ca3af" stroke="#9ca3af" points="116.67,-140.77 119.24,-134.38 113.25,-137.77 116.67,-140.77"/>
<text xml:space="preserve" text-anchor="middle" x="74.62" y="-244.5" font-family="Helvetica Neue" font-size="8.00">template</text>
</g>
<!-- safety_gate -->
<g id="node13" class="node">
<title>safety_gate</title>
<path fill="#fee2e2" stroke="#ef4444" stroke-width="1.2" d="M284.05,-312.86C284.05,-312.86 233.95,-312.86 233.95,-312.86 227.95,-312.86 221.95,-306.86 221.95,-300.86 221.95,-300.86 221.95,-288.86 221.95,-288.86 221.95,-282.86 227.95,-276.86 233.95,-276.86 233.95,-276.86 284.05,-276.86 284.05,-276.86 290.05,-276.86 296.05,-282.86 296.05,-288.86 296.05,-288.86 296.05,-300.86 296.05,-300.86 296.05,-306.86 290.05,-312.86 284.05,-312.86"/>
<text xml:space="preserve" text-anchor="middle" x="259" y="-297.36" font-family="Helvetica Neue" font-size="10.00">Safety Gate</text>
<text xml:space="preserve" text-anchor="middle" x="259" y="-285.36" font-family="Helvetica Neue" font-size="10.00">(classifier)</text>
</g>
<!-- dormant_node&#45;&gt;safety_gate -->
<g id="edge14" class="edge">
<title>dormant_node&#45;&gt;safety_gate</title>
<path fill="none" stroke="#9ca3af" d="M159.69,-391.72C163.71,-381.14 169.84,-367.76 178,-357.62 190.52,-342.07 207.74,-328.23 223.09,-317.61"/>
<polygon fill="#9ca3af" stroke="#9ca3af" points="224.17,-319.63 228.28,-314.1 221.62,-315.85 224.17,-319.63"/>
<text xml:space="preserve" text-anchor="middle" x="193" y="-360.52" font-family="Helvetica Neue" font-size="8.00">has msg</text>
</g>
<!-- dormant_node&#45;&gt;save_patient_context -->
<g id="edge13" class="edge">
<title>dormant_node&#45;&gt;save_patient_context</title>
<path fill="none" stroke="#9ca3af" stroke-dasharray="5,2" d="M142.96,-391.99C125.02,-362.19 92.28,-298.53 100,-241.6 104.89,-205.57 118.05,-165.52 127.27,-140.45"/>
<polygon fill="#9ca3af" stroke="#9ca3af" points="129.32,-141.48 129.47,-134.59 125.06,-139.88 129.32,-141.48"/>
<text xml:space="preserve" text-anchor="middle" x="110.5" y="-244.5" font-family="Helvetica Neue" font-size="8.00">no&#45;op</text>
</g>
<!-- tool_node -->
<g id="node12" class="node">
<title>tool_node</title>
<path fill="#fef3c7" stroke="#f59e0b" stroke-width="1.2" d="M520.42,-313.62C520.42,-313.62 373.57,-313.62 373.57,-313.62 367.57,-313.62 361.57,-307.62 361.57,-301.62 361.57,-301.62 361.57,-288.1 361.57,-288.1 361.57,-282.1 367.57,-276.1 373.57,-276.1 373.57,-276.1 520.42,-276.1 520.42,-276.1 526.42,-276.1 532.42,-282.1 532.42,-288.1 532.42,-288.1 532.42,-301.62 532.42,-301.62 532.42,-307.62 526.42,-313.62 520.42,-313.62"/>
<text xml:space="preserve" text-anchor="start" x="423.38" y="-299.36" font-family="Helvetica Neue" font-weight="bold" font-size="10.00">Tool Node</text>
<text xml:space="preserve" text-anchor="start" x="372.38" y="-291.26" font-family="Helvetica Neue" font-size="8.00">set_goal &#160;| &#160;set_reminder &#160;| &#160;get_adherence</text>
<text xml:space="preserve" text-anchor="start" x="395.25" y="-283.26" font-family="Helvetica Neue" font-size="8.00">get_program &#160;| &#160;alert_clinician</text>
</g>
<!-- onboarding_agent&#45;&gt;tool_node -->
<g id="edge15" class="edge">
<title>onboarding_agent&#45;&gt;tool_node</title>
<path fill="none" stroke="#d97706" d="M409.55,-391.59C418.96,-385.72 430.07,-379.74 441,-376.12 456.7,-370.92 503.95,-380.43 515,-368.12 530.23,-351.16 511.55,-332.43 489.95,-318.29"/>
<polygon fill="#d97706" stroke="#d97706" points="491.18,-316.38 484.46,-314.86 488.77,-320.23 491.18,-316.38"/>
<text xml:space="preserve" text-anchor="middle" x="533.75" y="-360.52" font-family="Helvetica Neue" font-size="8.00" fill="#92400e">tool call</text>
</g>
<!-- onboarding_agent&#45;&gt;safety_gate -->
<g id="edge21" class="edge">
<title>onboarding_agent&#45;&gt;safety_gate</title>
<path fill="none" stroke="#9ca3af" d="M354.3,-391.54C343.62,-384.81 331.85,-376.68 322,-368.12 305.18,-353.51 288.72,-334.42 276.85,-319.53"/>
<polygon fill="#9ca3af" stroke="#9ca3af" points="278.8,-318.32 272.99,-314.62 275.22,-321.13 278.8,-318.32"/>
<text xml:space="preserve" text-anchor="middle" x="331" y="-360.52" font-family="Helvetica Neue" font-size="8.00">done</text>
</g>
<!-- active_agent&#45;&gt;tool_node -->
<g id="edge16" class="edge">
<title>active_agent&#45;&gt;tool_node</title>
<path fill="none" stroke="#d97706" d="M533.98,-401.78C563.63,-394.18 597.54,-380.2 583,-357.62 571.24,-339.37 552.63,-326.45 532.91,-317.33"/>
<polygon fill="#d97706" stroke="#d97706" points="533.85,-315.26 526.99,-314.74 532.03,-319.43 533.85,-315.26"/>
<text xml:space="preserve" text-anchor="middle" x="599.86" y="-360.52" font-family="Helvetica Neue" font-size="8.00" fill="#92400e">tool call</text>
</g>
<!-- active_agent&#45;&gt;safety_gate -->
<g id="edge22" class="edge">
<title>active_agent&#45;&gt;safety_gate</title>
<path fill="none" stroke="#9ca3af" d="M467.95,-391.53C459.14,-386.3 449.3,-380.74 440,-376.12 420.64,-366.5 415.88,-363.25 395,-357.62 369.88,-350.84 361.26,-359.04 337,-349.62 317.95,-342.23 299.02,-329.34 284.58,-318.05"/>
<polygon fill="#9ca3af" stroke="#9ca3af" points="286.35,-316.55 279.86,-314.27 283.51,-320.1 286.35,-316.55"/>
<text xml:space="preserve" text-anchor="middle" x="432.33" y="-360.52" font-family="Helvetica Neue" font-size="8.00">done</text>
</g>
<!-- reengagement_agent&#45;&gt;tool_node -->
<g id="edge17" class="edge">
<title>reengagement_agent&#45;&gt;tool_node</title>
<path fill="none" stroke="#d97706" d="M299.88,-391.67C320.27,-381.14 342.74,-369.5 345,-368.12 370.08,-352.83 397.15,-333.51 417.1,-318.69"/>
<polygon fill="#d97706" stroke="#d97706" points="418.25,-320.67 422.1,-314.96 415.53,-317.02 418.25,-320.67"/>
<text xml:space="preserve" text-anchor="middle" x="372.88" y="-360.52" font-family="Helvetica Neue" font-size="8.00" fill="#92400e">tool call</text>
</g>
<!-- reengagement_agent&#45;&gt;safety_gate -->
<g id="edge23" class="edge">
<title>reengagement_agent&#45;&gt;safety_gate</title>
<path fill="none" stroke="#9ca3af" d="M238.99,-391.67C231.41,-385.26 224.11,-377.3 220,-368.12 212.45,-351.27 222.52,-332.98 234.31,-319.01"/>
<polygon fill="#9ca3af" stroke="#9ca3af" points="235.77,-320.8 238.41,-314.44 232.38,-317.76 235.77,-320.8"/>
<text xml:space="preserve" text-anchor="middle" x="229" y="-360.52" font-family="Helvetica Neue" font-size="8.00">done</text>
</g>
<!-- tool_node&#45;&gt;onboarding_agent -->
<g id="edge18" class="edge">
<title>tool_node&#45;&gt;onboarding_agent</title>
<path fill="none" stroke="#d97706" stroke-dasharray="5,2" d="M439.39,-314.08C432.96,-328.94 423.19,-350.31 413,-368.12 409.74,-373.82 405.94,-379.76 402.21,-385.29"/>
<polygon fill="#d97706" stroke="#d97706" points="400.57,-383.66 398.76,-390.31 404.32,-386.24 400.57,-383.66"/>
</g>
<!-- tool_node&#45;&gt;active_agent -->
<g id="edge19" class="edge">
<title>tool_node&#45;&gt;active_agent</title>
<path fill="none" stroke="#d97706" stroke-dasharray="5,2" d="M503.63,-314.11C553.36,-330.4 618.35,-352.46 622,-357.62 624.7,-361.43 624.86,-364.43 622,-368.12 613.29,-379.37 604.62,-372 591,-376.12 574.63,-381.07 556.87,-387.06 541.19,-392.58"/>
<polygon fill="#d97706" stroke="#d97706" points="540.47,-390.42 535.1,-394.73 541.99,-394.71 540.47,-390.42"/>
</g>
<!-- tool_node&#45;&gt;reengagement_agent -->
<g id="edge20" class="edge">
<title>tool_node&#45;&gt;reengagement_agent</title>
<path fill="none" stroke="#d97706" stroke-dasharray="5,2" d="M418.79,-314.13C399.34,-325.93 372.49,-340.7 347,-349.62 328.24,-356.18 319.8,-347 303,-357.62 292.57,-364.22 284.17,-374.91 278.04,-384.86"/>
<polygon fill="#d97706" stroke="#d97706" points="276.2,-383.48 274.91,-390.25 280.14,-385.77 276.2,-383.48"/>
</g>
<!-- retry_generation -->
<g id="node14" class="node">
<title>retry_generation</title>
<path fill="#fee2e2" stroke="#ef4444" stroke-width="1.2" d="M307.8,-217.6C307.8,-217.6 262.2,-217.6 262.2,-217.6 256.2,-217.6 250.2,-211.6 250.2,-205.6 250.2,-205.6 250.2,-193.6 250.2,-193.6 250.2,-187.6 256.2,-181.6 262.2,-181.6 262.2,-181.6 307.8,-181.6 307.8,-181.6 313.8,-181.6 319.8,-187.6 319.8,-193.6 319.8,-193.6 319.8,-205.6 319.8,-205.6 319.8,-211.6 313.8,-217.6 307.8,-217.6"/>
<text xml:space="preserve" text-anchor="middle" x="285" y="-202.1" font-family="Helvetica Neue" font-size="10.00">Retry</text>
<text xml:space="preserve" text-anchor="middle" x="285" y="-190.1" font-family="Helvetica Neue" font-size="10.00">Generation</text>
</g>
<!-- safety_gate&#45;&gt;retry_generation -->
<g id="edge25" class="edge">
<title>safety_gate&#45;&gt;retry_generation</title>
<path fill="none" stroke="#d97706" d="M239.6,-276.67C230.66,-266.59 223.22,-253.52 229.25,-241.6 232.95,-234.29 238.62,-227.97 244.97,-222.63"/>
<polygon fill="#d97706" stroke="#d97706" points="246,-224.71 249.75,-218.93 243.21,-221.11 246,-224.71"/>
<text xml:space="preserve" text-anchor="middle" x="237.12" y="-244.5" font-family="Helvetica Neue" font-size="8.00" fill="#92400e">retry</text>
</g>
<!-- safety_gate&#45;&gt;fallback_response -->
<g id="edge26" class="edge">
<title>safety_gate&#45;&gt;fallback_response</title>
<path fill="none" stroke="#ef4444" d="M233.73,-276.29C224.97,-269.41 215.54,-261.03 208.25,-252.1 201.59,-243.94 195.84,-233.89 191.36,-224.85"/>
<polygon fill="#ef4444" stroke="#ef4444" points="193.53,-224.13 188.69,-219.23 189.42,-226.08 193.53,-224.13"/>
<text xml:space="preserve" text-anchor="middle" x="213.12" y="-244.5" font-family="Helvetica Neue" font-size="8.00" fill="#ef4444">fail</text>
</g>
<!-- safety_gate&#45;&gt;save_patient_context -->
<g id="edge24" class="edge">
<title>safety_gate&#45;&gt;save_patient_context</title>
<path fill="none" stroke="#10b981" d="M286.17,-276.45C295.87,-269.53 306.49,-261.07 315,-252.1 342.38,-223.24 362.5,-196.94 338,-165.6 321.41,-144.38 255.41,-130.87 203.5,-123.32"/>
<polygon fill="#10b981" stroke="#10b981" points="203.88,-121.07 197.12,-122.41 203.24,-125.58 203.88,-121.07"/>
<text xml:space="preserve" text-anchor="middle" x="357.28" y="-197.25" font-family="Helvetica Neue" font-size="8.00" fill="#065f46">pass</text>
</g>
<!-- retry_generation&#45;&gt;safety_gate -->
<g id="edge27" class="edge">
<title>retry_generation&#45;&gt;safety_gate</title>
<path fill="none" stroke="#d97706" stroke-dasharray="5,2" d="M280.13,-218.06C276.14,-232.37 270.45,-252.8 265.98,-268.84"/>
<polygon fill="#d97706" stroke="#d97706" points="263.85,-267.99 264.3,-274.86 268.23,-269.21 263.85,-267.99"/>
<text xml:space="preserve" text-anchor="middle" x="289.68" y="-244.5" font-family="Helvetica Neue" font-size="8.00">re&#45;check</text>
</g>
<!-- fallback_response&#45;&gt;save_patient_context -->
<g id="edge28" class="edge">
<title>fallback_response&#45;&gt;save_patient_context</title>
<path fill="none" stroke="#9ca3af" d="M171.88,-181.4C165.6,-169.54 157.14,-153.6 150.13,-140.37"/>
<polygon fill="#9ca3af" stroke="#9ca3af" points="152.17,-139.36 147.12,-134.69 148.15,-141.49 152.17,-139.36"/>
</g>
<!-- save_patient_context&#45;&gt;END -->
<g id="edge29" class="edge">
<title>save_patient_context&#45;&gt;END</title>
<path fill="none" stroke="#9ca3af" d="M137,-96.06C137,-84.65 137,-69.45 137,-56.02"/>
<polygon fill="#9ca3af" stroke="#9ca3af" points="139.28,-56.38 137,-49.88 134.73,-56.38 139.28,-56.38"/>
</g>
</g>
</svg>
